<svg width="32" height="25" viewBox="0 0 32 25" fill="none" xmlns="http://www.w3.org/2000/svg">
<path d="M0.34705 23.2346C0.48143 23.4904 0.683115 23.7046 0.93034 23.8542C1.17756 24.0037 1.46094 24.0829 1.74988 24.0832L30.2499 24.0833C30.5383 24.0821 30.8209 24.0023 31.0674 23.8525C31.3138 23.7027 31.5148 23.4885 31.6487 23.233C31.7825 22.9775 31.8442 22.6904 31.827 22.4025C31.8099 22.1146 31.7146 21.8368 31.5514 21.599L17.3014 1.01567C17.1561 0.804701 16.9618 0.632208 16.735 0.513043C16.5083 0.39388 16.256 0.331616 15.9999 0.331616C15.7438 0.331616 15.4915 0.393879 15.2647 0.513043C15.038 0.632208 14.8436 0.804701 14.6984 1.01567L0.448382 21.599C0.283579 21.8363 0.186991 22.1143 0.169127 22.4026C0.15126 22.691 0.212799 22.9787 0.34705 23.2346ZM15.9999 4.6985L27.2289 20.9166L4.77089 20.9166L15.9999 4.6985Z" fill="white"/>
</svg>
