<svg width="60" height="60" viewBox="0 0 60 60" fill="none" xmlns="http://www.w3.org/2000/svg">
<g clip-path="url(#clip0)">
<path d="M50.7925 11.2299C46.9675 9.50493 42.8675 8.22993 38.58 7.50493C38.5418 7.4976 38.5023 7.50233 38.4669 7.51845C38.4315 7.53458 38.402 7.5613 38.3825 7.59493C37.8575 8.51743 37.2725 9.71993 36.8625 10.6699C32.3152 9.99053 27.6922 9.99053 23.145 10.6699C22.6883 9.61709 22.1734 8.59049 21.6025 7.59493C21.5831 7.56089 21.5539 7.53356 21.5186 7.51658C21.4833 7.49961 21.4437 7.4938 21.405 7.49993C17.12 8.22493 13.02 9.49993 9.19248 11.2274C9.15955 11.2412 9.13164 11.2648 9.11248 11.2949C1.33248 22.7324 -0.800019 33.8874 0.247481 44.9024C0.250396 44.9294 0.25877 44.9555 0.272093 44.9792C0.285417 45.0028 0.303411 45.0235 0.324981 45.0399C4.86596 48.346 9.93082 50.8645 15.3075 52.4899C15.345 52.5015 15.3851 52.5014 15.4225 52.4898C15.46 52.4782 15.4931 52.4556 15.5175 52.4249C16.6725 50.8749 17.7025 49.2374 18.5825 47.5174C18.635 47.4174 18.585 47.2974 18.48 47.2574C16.865 46.6493 15.3002 45.9153 13.8 45.0624C13.773 45.047 13.7503 45.0252 13.7339 44.9989C13.7174 44.9725 13.7078 44.9425 13.7058 44.9116C13.7038 44.8806 13.7096 44.8496 13.7225 44.8214C13.7355 44.7932 13.7552 44.7686 13.78 44.7499C14.095 44.5174 14.41 44.2749 14.71 44.0324C14.737 44.0106 14.7695 43.9967 14.8039 43.9923C14.8384 43.9879 14.8733 43.9931 14.905 44.0074C24.7225 48.4174 35.355 48.4174 45.0575 44.0074C45.0892 43.9923 45.1245 43.9864 45.1595 43.9904C45.1944 43.9943 45.2275 44.008 45.255 44.0299C45.555 44.2749 45.8675 44.5174 46.185 44.7499C46.21 44.7682 46.2301 44.7925 46.2434 44.8204C46.2568 44.8484 46.263 44.8793 46.2615 44.9102C46.26 44.9412 46.2509 44.9713 46.2349 44.9978C46.2189 45.0244 46.1966 45.0466 46.17 45.0624C44.675 45.9224 43.12 46.6499 41.4875 47.2549C41.4624 47.264 41.4396 47.2784 41.4205 47.297C41.4014 47.3156 41.3865 47.3381 41.3768 47.363C41.3671 47.3878 41.3628 47.4145 41.3642 47.4411C41.3656 47.4677 41.3727 47.4938 41.385 47.5174C42.285 49.2349 43.315 50.8699 44.4475 52.4224C44.471 52.4543 44.5038 52.4781 44.5414 52.4906C44.579 52.5032 44.6195 52.5038 44.6575 52.4924C50.0434 50.8715 55.1165 48.3519 59.6625 45.0399C59.6847 45.0244 59.7033 45.0044 59.7171 44.9811C59.7309 44.9578 59.7395 44.9318 59.7425 44.9049C60.9925 32.1699 57.6475 21.1049 50.87 11.2999C50.8534 11.2681 50.8259 11.2432 50.7925 11.2299ZM20.05 38.1949C17.095 38.1949 14.6575 35.5224 14.6575 32.2449C14.6575 28.9649 17.0475 26.2949 20.05 26.2949C23.075 26.2949 25.49 28.9874 25.4425 32.2449C25.4425 35.5249 23.0525 38.1949 20.05 38.1949V38.1949ZM39.9875 38.1949C37.03 38.1949 34.595 35.5224 34.595 32.2449C34.595 28.9649 36.9825 26.2949 39.9875 26.2949C43.0125 26.2949 45.4275 28.9874 45.38 32.2449C45.38 35.5249 43.015 38.1949 39.9875 38.1949V38.1949Z" fill="white"/>
</g>
<defs>
<clipPath id="clip0">
<rect width="60" height="60" fill="white"/>
</clipPath>
</defs>
</svg>
