<svg width="70" height="70" viewBox="0 0 70 70" fill="none" xmlns="http://www.w3.org/2000/svg">
<path d="M35 25.8878C29.9824 25.8878 25.8877 29.9825 25.8877 35.0001C25.8877 40.0177 29.9824 44.1124 35 44.1124C40.0175 44.1124 44.1123 40.0177 44.1123 35.0001C44.1123 29.9825 40.0175 25.8878 35 25.8878ZM62.33 35.0001C62.33 31.2266 62.3642 27.4874 62.1523 23.7208C61.9404 19.3458 60.9423 15.463 57.7431 12.2638C54.5371 9.0577 50.6611 8.06649 46.2861 7.85457C42.5127 7.64266 38.7734 7.67684 35.0068 7.67684C31.2334 7.67684 27.4941 7.64266 23.7275 7.85457C19.3525 8.06649 15.4697 9.06453 12.2705 12.2638C9.06441 15.4698 8.0732 19.3458 7.86129 23.7208C7.64937 27.4942 7.68355 31.2335 7.68355 35.0001C7.68355 38.7667 7.64937 42.5128 7.86129 46.2794C8.0732 50.6544 9.07125 54.5372 12.2705 57.7364C15.4765 60.9425 19.3525 61.9337 23.7275 62.1456C27.5009 62.3575 31.2402 62.3233 35.0068 62.3233C38.7802 62.3233 42.5195 62.3575 46.2861 62.1456C50.6611 61.9337 54.5439 60.9356 57.7431 57.7364C60.9492 54.5304 61.9404 50.6544 62.1523 46.2794C62.3711 42.5128 62.33 38.7735 62.33 35.0001V35.0001ZM35 49.0206C27.2412 49.0206 20.9795 42.7589 20.9795 35.0001C20.9795 27.2413 27.2412 20.9796 35 20.9796C42.7588 20.9796 49.0205 27.2413 49.0205 35.0001C49.0205 42.7589 42.7588 49.0206 35 49.0206ZM49.5947 23.6798C47.7832 23.6798 46.3203 22.2169 46.3203 20.4054C46.3203 18.5938 47.7832 17.1309 49.5947 17.1309C51.4062 17.1309 52.8691 18.5938 52.8691 20.4054C52.8696 20.8355 52.7853 21.2615 52.621 21.6591C52.4566 22.0566 52.2154 22.4178 51.9113 22.7219C51.6071 23.0261 51.2459 23.2673 50.8484 23.4316C50.4509 23.596 50.0248 23.6803 49.5947 23.6798V23.6798Z" fill="white"/>
</svg>
