<svg width="31" height="31" viewBox="0 0 31 31" fill="none" xmlns="http://www.w3.org/2000/svg">
<path d="M15.5 10.4231C12.7045 10.4231 10.4231 12.7045 10.4231 15.5C10.4231 18.2955 12.7045 20.5768 15.5 20.5768C18.2955 20.5768 20.5769 18.2955 20.5769 15.5C20.5769 12.7045 18.2955 10.4231 15.5 10.4231ZM30.7268 15.5C30.7268 13.3976 30.7458 11.3143 30.6277 9.21578C30.5097 6.77828 29.9536 4.615 28.1712 2.83258C26.385 1.04635 24.2255 0.494102 21.788 0.376035C19.6856 0.257969 17.6023 0.277012 15.5038 0.277012C13.4015 0.277012 11.3182 0.257969 9.21963 0.376035C6.78213 0.494102 4.61885 1.05016 2.83642 2.83258C1.05019 4.61881 0.497947 6.77828 0.37988 9.21578C0.261814 11.3181 0.280857 13.4014 0.280857 15.5C0.280857 17.5985 0.261814 19.6856 0.37988 21.7841C0.497947 24.2216 1.054 26.3849 2.83642 28.1673C4.62265 29.9536 6.78213 30.5058 9.21963 30.6239C11.322 30.742 13.4053 30.7229 15.5038 30.7229C17.6061 30.7229 19.6895 30.742 21.788 30.6239C24.2255 30.5058 26.3888 29.9498 28.1712 28.1673C29.9574 26.3811 30.5097 24.2216 30.6277 21.7841C30.7496 19.6856 30.7268 17.6023 30.7268 15.5ZM15.5 23.3114C11.1772 23.3114 7.68857 19.8227 7.68857 15.5C7.68857 11.1772 11.1772 7.68853 15.5 7.68853C19.8228 7.68853 23.3114 11.1772 23.3114 15.5C23.3114 19.8227 19.8228 23.3114 15.5 23.3114ZM23.6313 9.19293C22.6221 9.19293 21.807 8.37789 21.807 7.36861C21.807 6.35934 22.6221 5.5443 23.6313 5.5443C24.6406 5.5443 25.4557 6.35934 25.4557 7.36861C25.456 7.60827 25.409 7.84563 25.3174 8.0671C25.2258 8.28858 25.0915 8.48981 24.922 8.65927C24.7525 8.82873 24.5513 8.9631 24.3298 9.05468C24.1084 9.14625 23.871 9.19323 23.6313 9.19293Z" fill="#313131"/>
</svg>
