<svg width="83" height="54" viewBox="0 0 83 54" fill="none" xmlns="http://www.w3.org/2000/svg">
<g clip-path="url(#clip0)">
<path d="M30.618 27.1236C30.6198 31.4364 31.6532 35.6844 33.6296 39.5025C35.606 43.3207 38.4662 46.5949 41.9645 49.0441C45.4291 46.5629 48.2587 43.277 50.2173 39.4604C52.1759 35.6439 53.2066 31.4074 53.2235 27.1044C53.2404 22.8014 52.243 18.5567 50.3144 14.7244C48.3859 10.8921 45.5821 7.58342 42.1371 5.07437C38.5888 7.5158 35.6838 10.8019 33.6758 14.6455C31.6677 18.4891 30.6179 22.7733 30.618 27.1236Z" fill="white"/>
<path d="M26.9437 27.124C26.9436 22.4481 28.0084 17.8354 30.055 13.646C32.1016 9.45665 35.0747 5.80388 38.7421 2.97292C34.6946 0.868783 30.1832 -0.147304 25.6386 0.0216775C21.0939 0.190659 16.6679 1.53909 12.783 3.93817C8.89818 6.33726 5.68429 9.70691 3.44824 13.7253C1.21219 17.7438 0.0286493 22.2768 0.0106455 26.8916C-0.00735821 31.5063 1.14077 36.0487 3.3454 40.085C5.55003 44.1213 8.73752 47.5166 12.6035 49.9469C16.4695 52.3771 20.8849 53.761 25.4281 53.9665C29.9713 54.172 34.4905 53.1922 38.5543 51.1206C34.9412 48.2865 32.0161 44.65 30.0034 40.4903C27.9907 36.3305 26.9441 31.7581 26.9437 27.124Z" fill="white"/>
<path d="M56.875 53.6343C51.7065 53.6353 46.6538 52.0809 42.356 49.1677C38.0581 46.2545 34.7082 42.1134 32.7298 37.2681C30.7515 32.4227 30.2336 27.0909 31.2417 21.9469C32.2497 16.8028 34.7385 12.0777 38.3931 8.36908C42.0478 4.66048 46.7042 2.13502 51.7734 1.11207C56.8426 0.0891161 62.097 0.614648 66.8718 2.6222C71.6467 4.62975 75.7276 8.02913 78.5984 12.3904C81.4692 16.7517 83.001 21.8789 83 27.1237C82.992 34.1522 80.2369 40.8906 75.3393 45.8605C70.4416 50.8304 63.8013 53.6261 56.875 53.6343ZM56.875 4.32747C52.4325 4.33053 48.0907 5.6701 44.3984 8.17684C40.7061 10.6836 37.8292 14.2449 36.1312 18.4107C34.4332 22.5764 33.9905 27.1595 34.8591 31.5805C35.7276 36.0015 37.8683 40.062 41.0106 43.2485C44.153 46.4351 48.1559 48.6047 52.5132 49.483C56.8705 50.3614 61.3866 49.909 65.4906 48.1832C69.5946 46.4573 73.1022 43.5355 75.5699 39.787C78.0377 36.0385 79.3549 31.6317 79.3549 27.1237C79.3482 21.0772 76.9771 15.2805 72.7623 11.0064C68.5476 6.73234 62.8335 4.3302 56.875 4.32747Z" fill="white"/>
</g>
<defs>
<clipPath id="clip0">
<rect width="83" height="54" fill="white"/>
</clipPath>
</defs>
</svg>
