<svg width="60" height="60" viewBox="0 0 60 60" fill="none" xmlns="http://www.w3.org/2000/svg">
<path d="M59.1075 12.342C57.02 13.267 54.7775 13.892 52.42 14.1745C54.8525 12.7189 56.6724 10.4281 57.54 7.72946C55.2546 9.08693 52.7534 10.0424 50.145 10.5545C48.391 8.68162 46.0677 7.44028 43.5358 7.02315C41.004 6.60601 38.4053 7.03644 36.1431 8.24759C33.881 9.45875 32.082 11.3829 31.0254 13.7212C29.9689 16.0596 29.7139 18.6813 30.3 21.1795C25.6692 20.947 21.1391 19.7433 17.0036 17.6467C12.8681 15.5501 9.21963 12.6074 6.29503 9.00946C5.29503 10.7345 4.72003 12.7345 4.72003 14.8645C4.71891 16.7819 5.19111 18.6701 6.09473 20.3613C6.99834 22.0525 8.30543 23.4946 9.90003 24.5595C8.05072 24.5006 6.24221 24.0009 4.62503 23.102V23.252C4.62484 25.9413 5.55511 28.5479 7.25799 30.6295C8.96086 32.711 11.3315 34.1393 13.9675 34.672C12.252 35.1362 10.4534 35.2046 8.70753 34.872C9.45127 37.186 10.9 39.2095 12.8509 40.6593C14.8019 42.109 17.1573 42.9124 19.5875 42.957C15.4621 46.1955 10.3672 47.9522 5.12253 47.9445C4.19348 47.9447 3.26522 47.8905 2.34253 47.782C7.66622 51.2049 13.8634 53.0215 20.1925 53.0145C41.6175 53.0145 53.33 35.2695 53.33 19.8795C53.33 19.3795 53.3175 18.8745 53.295 18.3745C55.5733 16.7269 57.5398 14.6867 59.1025 12.3495L59.1075 12.342V12.342Z" fill="white"/>
</svg>
