<svg width="33" height="27" viewBox="0 0 33 27" fill="none" xmlns="http://www.w3.org/2000/svg">
<path d="M32.4942 3.78793C31.3113 4.29668 30.0406 4.64043 28.7046 4.79581C30.0831 3.99527 31.1143 2.73532 31.606 1.25106C30.3109 1.99767 28.8935 2.5232 27.4155 2.80481C26.4215 1.77475 25.105 1.092 23.6703 0.862583C22.2356 0.633162 20.7629 0.869895 19.4811 1.53603C18.1992 2.20216 17.1797 3.26043 16.581 4.54652C15.9823 5.83262 15.8378 7.27459 16.17 8.64856C13.5459 8.52068 10.9788 7.85869 8.63533 6.70555C6.29187 5.55241 4.22442 3.9339 2.56714 1.95506C2.00048 2.90381 1.67464 4.00381 1.67464 5.17531C1.67401 6.22992 1.94159 7.26839 2.45364 8.19856C2.96569 9.12874 3.70637 9.92186 4.60998 10.5076C3.56203 10.4752 2.53721 10.2004 1.62081 9.70593V9.78843C1.6207 11.2676 2.14786 12.7012 3.11282 13.8461C4.07778 14.9909 5.42112 15.7765 6.91489 16.0694C5.94275 16.3248 4.92354 16.3624 3.93423 16.1794C4.35568 17.4521 5.17664 18.5651 6.28216 19.3625C7.38769 20.1598 8.72244 20.6017 10.0996 20.6262C7.76182 22.4074 4.87473 23.3736 1.90273 23.3693C1.37627 23.3694 0.850251 23.3396 0.327393 23.2799C3.34415 25.1625 6.85587 26.1617 10.4424 26.1578C22.5832 26.1578 29.2203 16.3981 29.2203 7.93356C29.2203 7.65856 29.2132 7.38081 29.2005 7.10581C30.4915 6.19965 31.6058 5.07754 32.4914 3.79206L32.4942 3.78793Z" fill="#1758FF"/>
</svg>
